<?xml version="1.0" encoding="iso-8859-1"?>
<!-- Generator: Adobe Illustrator 16.0.0, SVG Export Plug-In . SVG Version: 6.00 Build 0)  -->
<!DOCTYPE svg PUBLIC "-//W3C//DTD SVG 1.1//EN" "http://www.w3.org/Graphics/SVG/1.1/DTD/svg11.dtd">
<svg version="1.1" id="Capa_1" xmlns="http://www.w3.org/2000/svg" xmlns:xlink="http://www.w3.org/1999/xlink" x="0px" y="0px"
	 width="442.176px" height="442.176px" viewBox="0 0 442.176 442.176" style="enable-background:new 0 0 442.176 442.176;"
	 xml:space="preserve">
<g>
	<path fill="white" d="M401.271,223.514c-3.108-96.73-82.715-174.475-180.188-174.475c-97.474,0-177.083,77.744-180.189,174.486
		C16.243,240.205,0,268.436,0,300.391c0,51.139,41.607,92.745,92.749,92.745c6.212,0,11.248-5.029,11.248-11.244V218.881
		c0-6.204-5.036-11.244-11.248-11.244c-9.972,0-19.556,1.625-28.559,4.543c8.592-78.971,75.668-140.652,156.892-140.652
		c81.227,0,148.3,61.682,156.891,140.652c-9.002-2.918-18.586-4.543-28.551-4.543c-6.209,0-11.244,5.04-11.244,11.244v163.012
		c0,6.215,5.035,11.244,11.244,11.244c51.146,0,92.754-41.606,92.754-92.744C442.175,268.436,425.925,240.205,401.271,223.514z
		 M81.503,369.748c-33.418-5.392-59.016-34.45-59.016-69.355c0-34.921,25.598-63.965,59.016-69.367V369.748z M360.666,369.748
		V231.025c33.415,5.402,59.017,34.446,59.017,69.367C419.683,335.298,394.081,364.357,360.666,369.748z"/>
</g>
<g>
</g>
<g>
</g>
<g>
</g>
<g>
</g>
<g>
</g>
<g>
</g>
<g>
</g>
<g>
</g>
<g>
</g>
<g>
</g>
<g>
</g>
<g>
</g>
<g>
</g>
<g>
</g>
<g>
</g>
</svg>
