<svg width="799.9999999999999" height="799.9999999999999" xmlns="http://www.w3.org/2000/svg">

 <g>
  <ellipse ry="398.86364" rx="400" id="svg_15" cy="400" cx="399.99999" stroke="null"/>
  <g id="svg_8">
   <path id="svg_2" fill="#ee1d52" d="m195.95035,577.88762l1.6,4.6c-0.2,-0.5 -0.8,-2.1 -1.6,-4.6zm64.9,-104.9c2.9,-24.9 12.7,-38.8 31.1,-53.1c26.4,-19.3 59.3,-8.4 59.3,-8.4l0,-64.9c8,-0.2 16,0.3 23.9,1.5l0,83.5s-32.9,-10.9 -59.3,8.4c-18.4,14.3 -28.2,28.2 -31.1,53.1c-0.1,13.5 2.3,31.2 13.5,46.4c-2.8,-1.5 -5.6,-3.2 -8.5,-5.1c-24.5,-17.2 -29,-43.1 -28.9,-61.4zm250.4,-246.4c-18.1,-20.7 -25,-41.7 -27.5,-56.4l22.8,0s-4.5,38.6 28.6,76.5l0.5,0.5c-9,-5.8 -17.2,-12.8 -24.4,-20.6zm109.9,58.8l0,81.8s-29.1,-1.2 -50.7,-6.9c-30.1,-8 -49.4,-20.3 -49.4,-20.3s-13.4,-8.8 -14.4,-9.4l0,169c0,9.4 -2.5,32.9 -10,52.5c-9.8,25.6 -25,42.5 -27.8,45.9c0,0 -18.5,22.8 -51,38.1c-29.3,13.8 -55.1,13.5 -62.8,13.8c0,0 -44.5,1.8 -84.6,-25.3c-8.7,-6 -16.8,-12.8 -24.2,-20.3l0.2,0.2c40.1,27.2 84.6,25.3 84.6,25.3c7.7,-0.3 33.5,0 62.8,-13.8c32.5,-15.3 51,-38.1 51,-38.1c2.8,-3.4 18,-20.3 27.8,-45.9c7.5,-19.6 10,-43.1 10,-52.5l0,-168.9c1.1,0.6 14.4,9.4 14.4,9.4s19.3,12.3 49.4,20.3c21.6,5.7 50.7,6.9 50.7,6.9l0,-64.1c10,2.3 18.5,2.9 24,2.3z"/>
   <path id="svg_3" fill="#fff" d="m597.15035,282.98762l0,64.1s-29.1,-1.2 -50.7,-6.9c-30.1,-8 -49.4,-20.3 -49.4,-20.3s-13.4,-8.8 -14.4,-9.4l0,169c0,9.4 -2.5,32.9 -10,52.5c-9.8,25.6 -25,42.5 -27.8,45.9c0,0 -18.5,22.8 -51,38.1c-29.3,13.8 -55.1,13.5 -62.8,13.8c0,0 -44.5,1.8 -84.6,-25.3l-0.2,-0.2c-4.2,-4.3 -8.2,-8.8 -11.9,-13.5c-12.8,-16.3 -20.6,-35.5 -22.6,-41l0,-0.1c-3.2,-9.5 -9.8,-32.5 -8.9,-54.6c1.6,-39.1 14.8,-63.2 18.3,-69.2c9.2,-16.4 21.3,-31.1 35.5,-43.4c12.6,-10.6 26.9,-19.1 42.2,-25c16.6,-7 34.4,-10.7 52.4,-11l0,64.9s-32.9,-10.9 -59.3,8.4c-18.4,14.3 -28.2,28.2 -31.1,53.1c-0.1,18.3 4.4,44.2 29,61.5c2.9,1.9 5.7,3.6 8.5,5.1c4.3,5.8 9.5,10.9 15.5,15.1c24.1,15.9 44.2,17 70,6.7c17.2,-6.9 30.1,-22.4 36.1,-39.7c3.8,-10.8 3.7,-21.6 3.7,-32.8l0,-318.6l60,0c2.5,14.7 9.3,35.7 27.5,56.4c7.3,7.8 15.5,14.8 24.4,20.6c2.6,2.9 16.1,16.9 33.5,25.6c8.9,4.5 18.4,7.9 28.1,10.2z"/>
   <g id="svg_4" fill="#69c9d0">
    <path id="svg_5" d="m187.85035,529.98762l1.5,4.3c-0.2,-0.5 -0.8,-2 -1.5,-4.3z"/>
    <path id="svg_6" d="m298.85035,357.58762c-15.4,5.9 -29.6,14.4 -42.2,25c-14.3,12.3 -26.3,27.1 -35.5,43.5c-3.5,6 -16.7,30 -18.3,69.2c-0.9,22.2 5.8,45.1 8.9,54.6l0,0.1c2,5.4 9.8,24.7 22.6,41c3.7,4.7 7.7,9.2 11.9,13.5c-13.6,-9.4 -25.6,-20.7 -35.9,-33.6c-12.7,-16.1 -20.5,-35.2 -22.5,-40.8l0,-0.2c-3.2,-9.5 -9.9,-32.5 -8.9,-54.7c1.6,-39.1 14.8,-63.2 18.3,-69.2c9.2,-16.4 21.2,-31.2 35.5,-43.5c12.6,-10.6 26.9,-19.1 42.2,-25c9.6,-4 19.6,-6.9 29.8,-8.8c15.4,-2.7 31.1,-2.9 46.6,-0.7l0,18.6c-18.1,0.3 -35.9,4 -52.5,11z"/>
    <path id="svg_7" d="m483.75035,170.18762l-60,0l0,318.6c0,11.2 0,22 -3.7,32.8c-6.1,17.2 -19,32.8 -36.1,39.7c-25.8,10.4 -46,9.2 -70,-6.7c-6,-4.1 -11.2,-9.2 -15.5,-15c20.5,10.9 38.8,10.7 61.5,1.6c17.2,-6.9 30.1,-22.5 36.1,-39.7c3.8,-10.8 3.7,-21.6 3.7,-32.8l0,-318.6l82.9,0c-0.1,0 -1,7.9 1.1,20.1zm113.4,95.1l0,17.7c-9.7,-2.3 -19.2,-5.7 -28.1,-10.2c-17.3,-8.6 -30.8,-22.7 -33.5,-25.6c3.1,2 6.2,3.8 9.5,5.5c21.2,10.5 41.9,13.7 52.1,12.6z"/>
   </g>
  </g>
 </g>
</svg>