<?xml version="1.0" encoding="iso-8859-1"?>
<!-- Generator: Adobe Illustrator 19.0.0, SVG Export Plug-In . SVG Version: 6.00 Build 0)  -->
<svg version="1.1" id="Layer_1" xmlns="http://www.w3.org/2000/svg" xmlns:xlink="http://www.w3.org/1999/xlink" x="0px" y="0px"
	 viewBox="0 0 512 512" style="enable-background:new 0 0 512 512;" xml:space="preserve">
<g>
	<path style="fill:#74D1D2;" d="M376.756,474.275c-4.869-10.948-18.65-19.914-30.633-19.914H165.877
		c-11.983,0-25.763,8.965-30.633,19.914l-12.942,29.108h267.395L376.756,474.275z"/>
	<path style="fill:#74D1D2;" d="M180.061,318.071c0,18.051,14.641,32.681,32.681,32.681h86.517c18.04,0,32.681-14.63,32.681-32.681
		H180.061z"/>
</g>
<g>
	<path style="fill:#C8FEFF;" d="M310.403,454.361H201.597c0-22.713,13.933-42.18,33.727-50.318v-53.292h41.352v53.292
		C296.47,412.181,310.403,431.648,310.403,454.361z"/>
	<path style="fill:#C8FEFF;" d="M487.489,285.39H24.511c-9.02,0-16.34,7.321-16.34,16.34c0,9.031,7.321,16.34,16.34,16.34h462.979
		c9.02,0,16.34-7.31,16.34-16.34C503.83,292.711,496.509,285.39,487.489,285.39z"/>
</g>
<path style="fill:#8E4238;" d="M416.496,55.655H95.504c-23.966,0-43.574,19.609-43.574,43.574v32.681
	c27.463,0,32.746,18.683,51.679,25.861v44.98c0,9.02,7.31,16.34,16.34,16.34c9.02,0,16.34-7.321,16.34-16.34v-44.98
	c18.922-7.19,24.206-25.861,51.679-25.861c34.01,0,34.01,28.639,68.02,28.639s34.01-28.639,68.02-28.639
	c34.021,0,34.021,28.639,68.031,28.639c34.021,0,34.021-28.639,68.031-28.639V99.229C460.07,75.263,440.462,55.655,416.496,55.655z"
	/>
<g>
	<path style="fill:#EF5352;" d="M392.039,160.549c-34.01,0-34.01-28.639-68.031-28.639c-34.01,0-34.01,28.639-68.02,28.639
		s-34.01-28.639-68.02-28.639c-27.474,0-32.757,18.672-51.679,25.861v44.98c0,9.02-7.321,16.34-16.34,16.34
		c-9.031,0-16.34-7.321-16.34-16.34v-44.98c-18.933-7.179-24.216-25.861-51.679-25.861v153.48h408.14V131.91
		C426.06,131.91,426.06,160.549,392.039,160.549z"/>
	<path style="fill:#EF5352;" d="M399.349,55.568v0.087h-65.362v-0.087c0-18.04,32.681-32.681,32.681-32.681
		S399.349,37.528,399.349,55.568z"/>
	<path style="fill:#EF5352;" d="M302.962,55.568v0.087h-93.925v-0.087C209.038,29.641,256,8.616,256,8.616
		S302.962,29.641,302.962,55.568z"/>
	<path style="fill:#EF5352;" d="M178.013,55.568v0.087h-65.362v-0.087c0-18.04,32.681-32.681,32.681-32.681
		S178.013,37.528,178.013,55.568z"/>
</g>
<g>
	<circle style="fill:#700D00;" cx="368.411" cy="243.101" r="8.17"/>
	<circle style="fill:#700D00;" cx="401.092" cy="210.42" r="8.17"/>
	<path style="fill:#700D00;" d="M487.489,277.223h-19.245V99.235c0-28.531-23.213-51.745-51.745-51.745h-10.406
		c-6.447-18.281-32.72-30.55-36.085-32.057c-2.124-0.951-4.554-0.951-6.678,0c-3.365,1.507-29.638,13.776-36.085,32.057h-17.214
		c-7.045-26.067-45.876-44.179-50.695-46.336c-2.123-0.951-4.554-0.951-6.677,0c-4.818,2.157-43.649,20.269-50.695,46.336h-17.214
		c-6.447-18.281-32.72-30.55-36.085-32.057c-2.124-0.951-4.554-0.951-6.678,0c-3.365,1.507-29.638,13.776-36.085,32.057H95.499
		c-28.531,0-51.745,23.213-51.745,51.745v177.989H24.511C10.995,277.223,0,288.219,0,301.734s10.995,24.511,24.511,24.511h148.207
		c3.795,18.624,20.3,32.681,40.029,32.681h14.405v39.913c-18.239,9.451-30.552,27.113-33.186,47.359H165.88
		c-15.194,0-31.931,10.876-38.103,24.761l-10.781,24.26h-16.478c-4.512,0-8.17,3.657-8.17,8.17c0,4.513,3.658,8.17,8.17,8.17h21.741
		c0.071,0,267.409,0,267.409,0c0.071,0,21.812,0,21.812,0c4.512,0,8.17-3.657,8.17-8.17c0-4.513-3.658-8.17-8.17-8.17h-16.478
		l-10.781-24.26c-6.171-13.885-22.908-24.761-38.103-24.761h-28.084c-2.634-20.246-14.947-37.908-33.186-47.36v-39.912h14.405
		c19.728,0,36.233-14.057,40.029-32.681h148.207c13.516,0,24.511-10.996,24.511-24.511S501.005,277.223,487.489,277.223z
		 M366.67,31.961c7.388,3.802,16.004,9.691,20.801,15.529h-41.601C350.668,41.651,359.285,35.761,366.67,31.961z M256.005,17.661
		c10.613,5.311,30.094,17.206,36.596,29.829h-73.192C225.926,34.894,245.403,22.982,256.005,17.661z M145.328,31.961
		c7.388,3.802,16.004,9.691,20.801,15.529h-41.601C129.326,41.651,137.944,35.761,145.328,31.961z M95.5,63.83h321
		c19.521,0,35.404,15.882,35.404,35.404v25.055c-14.775,1.982-23.392,9.195-31.107,15.689c-8.228,6.925-14.728,12.396-28.755,12.396
		c-14.027,0-20.526-5.47-28.755-12.396c-9.041-7.609-19.288-16.234-39.277-16.234c-19.986,0-30.232,8.624-39.273,16.235
		c-8.227,6.924-14.725,12.395-28.749,12.395c-14.026,0-20.524-5.47-28.752-12.396c-9.04-7.609-19.286-16.234-39.274-16.234
		c-19.987,0-30.232,8.624-39.271,16.234c-4.832,4.069-9.397,7.912-15.308,10.155c-3.173,1.204-5.27,4.244-5.27,7.639v44.974
		c0,4.506-3.665,8.17-8.17,8.17c-4.505,0-8.17-3.665-8.17-8.17c0-14.893,0-42.964,0.003-44.842c0.057-3.391-2.011-6.532-5.27-7.769
		c-5.912-2.244-10.477-6.087-15.31-10.155c-7.714-6.495-16.328-13.707-31.101-15.69V99.235C60.096,79.712,75.979,63.83,95.5,63.83z
		 M60.096,140.835c8.75,1.715,14.143,6.228,20.578,11.644c4.217,3.55,8.874,7.47,14.763,10.555l-0.002,39.712
		c0,13.515,10.995,24.511,24.511,24.511s24.511-10.996,24.511-24.511v-39.712c5.888-3.085,10.545-7.006,14.762-10.555
		c8.227-6.924,14.725-12.395,28.748-12.395c14.026,0,20.524,5.47,28.75,12.396c9.041,7.609,19.287,16.234,39.274,16.234
		s30.232-8.624,39.273-16.235c8.227-6.924,14.725-12.395,28.749-12.395c14.028,0,20.527,5.47,28.755,12.396
		c9.041,7.609,19.288,16.234,39.277,16.234c19.989,0,30.236-8.624,39.277-16.234c6.437-5.417,11.832-9.932,20.585-11.646v136.387
		H60.096V140.835z M273.571,411.602c14.84,6.106,25.199,19.207,27.935,34.595h-45.438c-4.512,0-8.17,3.657-8.17,8.17
		c0,4.513,3.658,8.17,8.17,8.17h90.053c8.778,0,19.605,7.036,23.171,15.057l7.833,17.624H134.877l7.833-17.624
		c3.565-8.021,14.393-15.057,23.171-15.057h57.506c4.512,0,8.17-3.657,8.17-8.17c0-4.513-3.658-8.17-8.17-8.17h-12.891
		c2.735-15.387,13.094-28.488,27.935-34.595c3.063-1.259,5.061-4.244,5.061-7.556v-45.121h25.019v45.121
		C268.509,407.358,270.508,410.342,273.571,411.602z M299.254,342.585h-86.508c-10.651,0-19.733-6.831-23.105-16.34H322.36
		C318.987,335.754,309.906,342.585,299.254,342.585z M487.489,309.904H24.511c-4.506,0-8.17-3.665-8.17-8.17s3.665-8.17,8.17-8.17
		h462.979c4.506,0,8.17,3.665,8.17,8.17S491.995,309.904,487.489,309.904z"/>
</g>
<g>
</g>
<g>
</g>
<g>
</g>
<g>
</g>
<g>
</g>
<g>
</g>
<g>
</g>
<g>
</g>
<g>
</g>
<g>
</g>
<g>
</g>
<g>
</g>
<g>
</g>
<g>
</g>
<g>
</g>
</svg>
