<?xml version="1.0" encoding="iso-8859-1"?>
<!-- Generator: Adobe Illustrator 19.0.0, SVG Export Plug-In . SVG Version: 6.00 Build 0)  -->
<svg version="1.1" id="Layer_1" xmlns="http://www.w3.org/2000/svg" xmlns:xlink="http://www.w3.org/1999/xlink" x="0px" y="0px"
	 viewBox="0 0 512 512" style="enable-background:new 0 0 512 512;" xml:space="preserve">
<path style="fill:#E8D6BD;" d="M492.936,401.076l-6.405,22.419c-2.473,8.639-11.841,15.709-20.829,15.709H73.532
	c-8.987,0-18.356-7.07-20.829-15.709l-6.405-22.419H492.936z"/>
<path style="fill:#C8FEFF;" d="M443.915,110.924v87.149c0,96.267-78.042,174.298-174.298,174.298
	c-49.849,0-94.796-20.927-126.562-54.468H95.319c-23.28,0-45.165-9.064-61.625-25.524c-16.46-16.46-25.524-38.346-25.524-61.625
	s9.063-45.165,25.524-61.625s38.346-25.524,61.625-25.524v-32.681H128v32.681v54.468c0,78.085,63.532,141.617,141.617,141.617
	s141.617-63.532,141.617-141.617v-54.468v-32.681L443.915,110.924L443.915,110.924z M95.319,285.222h23.323
	c-14.837-25.633-23.323-55.405-23.323-87.149v-21.787c-14.554,0-28.225,5.665-38.52,15.948
	c-10.284,10.294-15.948,23.966-15.948,38.52c0,14.554,5.665,28.225,15.959,38.52C67.094,279.557,80.765,285.222,95.319,285.222z"/>
<path style="fill:#BD9F79;" d="M411.234,143.605v54.468c0,78.085-63.532,141.617-141.617,141.617S128,276.159,128,198.073v-54.468
	c35.404,0,35.404,15.251,70.809,15.251s35.404-15.251,70.798-15.251c35.415,0,35.415,15.251,70.819,15.251
	S375.83,143.605,411.234,143.605z"/>
<path style="fill:#F9EBDB;" d="M411.234,110.924v32.681c-35.404,0-35.404,15.251-70.809,15.251s-35.404-15.251-70.819-15.251
	c-35.393,0-35.393,15.251-70.798,15.251S163.404,143.605,128,143.605v-32.681H411.234z"/>
<path style="fill:#FFFFFF;" d="M411.234,110.924H128c0-21.057,17.07-38.128,38.128-38.128c9.989,0,19.075,3.845,25.872,10.131
	c6.798-6.286,15.883-10.131,25.872-10.131s19.075,3.845,25.872,10.131c6.798-6.286,15.883-10.131,25.872-10.131
	c9.989,0,19.075,3.845,25.872,10.131c6.798-6.286,15.883-10.131,25.872-10.131s19.075,3.845,25.872,10.131
	c6.798-6.286,15.883-10.131,25.872-10.131C394.164,72.797,411.234,89.867,411.234,110.924z"/>
<g>
	<path style="fill:#700D00;" d="M503.83,392.906H35.404c-4.512,0-8.17,3.657-8.17,8.17c0,4.513,3.658,8.17,8.17,8.17h4.731
		l4.711,16.491c3.466,12.133,16.066,21.637,28.685,21.637h392.17c12.619,0,25.219-9.505,28.686-21.637l4.712-16.491h4.73
		c4.513,0,8.17-3.657,8.17-8.17C512,396.563,508.343,392.906,503.83,392.906z M478.676,421.246
		c-1.464,5.121-7.648,9.786-12.974,9.786H73.532c-5.327,0-11.51-4.664-12.973-9.786l-3.429-12.001h424.975L478.676,421.246z"/>
	<path style="fill:#700D00;" d="M95.319,293.392h23.322c2.921,0,5.618-1.559,7.078-4.088c1.46-2.529,1.458-5.646-0.004-8.173
		c-14.541-25.135-22.226-53.856-22.226-83.057v-21.787c0-4.513-3.658-8.17-8.17-8.17c-16.732,0-32.462,6.515-44.291,18.346
		c-11.83,11.83-18.346,27.561-18.346,44.292c0,16.73,6.515,32.461,18.347,44.292C62.859,286.878,78.589,293.392,95.319,293.392z
		 M62.582,198.015c6.786-6.786,15.309-11.206,24.566-12.846v12.903c0,27.416,6.173,54.454,17.945,78.979h-9.774
		c-12.366,0-23.992-4.816-32.737-13.559c-8.744-8.745-13.56-20.372-13.56-32.739C49.021,218.388,53.836,206.761,62.582,198.015z"/>
	<path style="fill:#700D00;" d="M95.319,326.073h44.263c34.564,35.155,80.6,54.468,130.034,54.468
		c100.612,0,182.468-81.856,182.468-182.468v-87.149c0-4.513-3.657-8.17-8.17-8.17h-25.248
		c-3.872-21.643-22.821-38.128-45.561-38.128c-9.302,0-18.271,2.77-25.872,7.904c-7.602-5.134-16.57-7.904-25.872-7.904
		c-9.301,0-18.271,2.77-25.872,7.904c-7.6-5.134-16.57-7.904-25.872-7.904s-18.271,2.77-25.872,7.904
		c-7.6-5.134-16.57-7.904-25.872-7.904c-9.302,0-18.272,2.77-25.872,7.904c-7.6-5.134-16.57-7.904-25.872-7.904
		c-22.74,0-41.69,16.484-45.561,38.128H95.318c-4.512,0-8.17,3.657-8.17,8.17v24.853c-22.38,1.887-43.168,11.511-59.231,27.575
		C9.914,181.356,0,205.294,0,230.754s9.915,49.397,27.918,67.401C45.923,316.159,69.86,326.073,95.319,326.073z M403.062,135.73
		c-14.26,1.035-22.808,4.697-30.467,7.997c-8.669,3.734-16.155,6.959-32.173,6.959c-16.018,0-23.504-3.225-32.173-6.959
		c-9.022-3.887-19.25-8.292-38.637-8.292c-19.386,0-29.613,4.405-38.635,8.292c-8.668,3.734-16.154,6.959-32.171,6.959
		s-23.502-3.225-32.17-6.959c-7.658-3.3-16.206-6.962-30.465-7.997v-16.636h266.894v16.636H403.062z M166.127,80.967
		c7.557,0,14.775,2.827,20.326,7.959c3.131,2.896,7.961,2.896,11.093,0c5.55-5.132,12.77-7.959,20.325-7.959
		s14.775,2.827,20.326,7.959c3.131,2.896,7.961,2.896,11.093,0c5.55-5.132,12.768-7.959,20.325-7.959
		c7.558,0,14.775,2.827,20.325,7.959c3.132,2.896,7.962,2.896,11.094,0c5.551-5.132,12.77-7.959,20.325-7.959
		s14.775,2.827,20.325,7.959c3.132,2.896,7.962,2.896,11.094,0c5.551-5.132,12.769-7.959,20.325-7.959
		c13.686,0,25.249,9.229,28.816,21.787h-264.61C140.876,90.196,152.44,80.967,166.127,80.967z M39.472,174.908
		c14.916-14.917,34.748-23.132,55.846-23.132c4.512,0,8.17-3.657,8.17-8.17v-24.511h16.34v78.979
		c0,82.592,67.194,149.787,149.787,149.787c34.087,0,66.228-11.206,92.949-32.409c3.534-2.804,4.126-7.944,1.321-11.479
		c-2.804-3.534-7.944-4.125-11.479-1.321c-23.801,18.885-52.431,28.868-82.792,28.868c-73.582,0-133.447-59.864-133.447-133.447
		v-45.975c10.693,0.904,16.956,3.603,24,6.636c9.022,3.887,19.249,8.292,38.635,8.292s29.613-4.405,38.636-8.292
		c8.668-3.734,16.154-6.959,32.171-6.959c16.018,0,23.504,3.225,32.173,6.959c9.022,3.887,19.25,8.292,38.637,8.292
		c19.387,0,29.615-4.405,38.637-8.291c7.045-3.035,13.309-5.733,24.003-6.637v45.975c0,30.362-9.983,58.99-28.868,82.791
		c-2.805,3.535-2.212,8.675,1.321,11.479c3.533,2.805,8.672,2.212,11.479-1.321c21.202-26.72,32.409-58.861,32.409-92.949v-54.447
		c0-0.042,0-24.531,0-24.531h16.342v78.979c0,91.603-74.524,166.128-166.128,166.128c-46.084,0-88.926-18.437-120.633-51.916
		c-1.544-1.63-3.687-2.552-5.932-2.552H95.319c-21.094,0-40.928-8.215-55.846-23.133C24.556,271.682,16.34,251.85,16.34,230.754
		C16.34,209.657,24.555,189.825,39.472,174.908z"/>
</g>
<g>
</g>
<g>
</g>
<g>
</g>
<g>
</g>
<g>
</g>
<g>
</g>
<g>
</g>
<g>
</g>
<g>
</g>
<g>
</g>
<g>
</g>
<g>
</g>
<g>
</g>
<g>
</g>
<g>
</g>
</svg>
