<?xml version="1.0"?>
<svg width="117px" height="117px" viewBox="0 -27 117 117" version="1.1" xmlns="http://www.w3.org/2000/svg" xmlns:xlink="http://www.w3.org/1999/xlink">
  <title />
  <desc />
  <defs />
  <g fill="none" fill-rule="evenodd" id="Page-1" stroke="none" stroke-width="1">
    <g fill-rule="nonzero" id="switch">
      <path d="M31.5,62.6 L85.5,62.6 C102.6,62.6 116.6,48.7 116.6,31.5 C116.6,14.3 102.7,0.4 85.5,0.4 L31.5,0.4 C14.4,0.4 0.4,14.3 0.4,31.5 C0.4,48.7 14.4,62.6 31.5,62.6 Z M31.5,8.6 L85.5,8.6 C98.1,8.6 108.4,18.9 108.4,31.5 C108.4,44.1 98.1,54.4 85.5,54.4 L31.5,54.4 C18.9,54.4 8.6,44.1 8.6,31.5 C8.6,18.9 18.9,8.6 31.5,8.6 Z" fill="#4A4A4A" id="Shape" />
      <path d="M31.5,48.8 C41,48.8 48.8,41 48.8,31.5 C48.8,22 41,14.2 31.5,14.2 C22,14.2 14.2,22 14.2,31.5 C14.2,41 22,48.8 31.5,48.8 Z M31.5,22.4 C36.5,22.4 40.6,26.5 40.6,31.5 C40.6,36.5 36.5,40.6 31.5,40.6 C26.5,40.6 22.4,36.5 22.4,31.5 C22.4,26.5 26.5,22.4 31.5,22.4 Z" fill="#17AB13" id="Shape" />
    </g>
  </g>
</svg>