<?xml version="1.0" encoding="iso-8859-1"?>
<!-- Uploaded to: SVG Repo, www.svgrepo.com, Generator: SVG Repo Mixer Tools -->
<svg fill="#000000" height="800px" width="800px" version="1.1" id="Layer_1" xmlns="http://www.w3.org/2000/svg" xmlns:xlink="http://www.w3.org/1999/xlink" 
	 viewBox="0 0 512 512" xml:space="preserve">
<g>
	<g>
		<path d="M437.02,74.98C388.667,26.628,324.381,0,256,0S123.333,26.628,74.98,74.98C26.628,123.333,0,187.62,0,256
			s26.628,132.667,74.98,181.02C123.333,485.372,187.619,512,256,512s132.667-26.628,181.02-74.98
			C485.372,388.667,512,324.38,512,256S485.372,123.333,437.02,74.98z M256,489.739C127.116,489.739,22.261,384.884,22.261,256
			S127.116,22.261,256,22.261S489.739,127.116,489.739,256S384.884,489.739,256,489.739z"/>
	</g>
</g>
<g>
	<g>
		<path d="M256,44.522c-48.272,0-95.484,16.691-132.939,46.999c-4.779,3.867-5.518,10.876-1.651,15.654
			c2.199,2.718,5.415,4.129,8.658,4.129c2.459,0,4.935-0.811,6.994-2.479C170.571,81.714,212.808,66.783,256,66.783
			c6.146,0,11.13-4.983,11.13-11.13S262.146,44.522,256,44.522z"/>
	</g>
</g>
<g>
	<g>
		<path d="M114.338,113.919c-4.566-4.115-11.606-3.749-15.718,0.818l-0.27,0.302c-4.082,4.599-3.662,11.633,0.936,15.714
			c2.119,1.881,4.756,2.805,7.384,2.805c3.072,0,6.131-1.264,8.329-3.743l0.158-0.176
			C119.272,125.072,118.905,118.034,114.338,113.919z"/>
	</g>
</g>
</svg>